# xmcd
# Copyright (C) 1995-1998 Ti Kan
#
# Track frame offsets:
#       150
#       12145
#       23911
#       38591
#       50032
#       64844
#       78474
#       90555
#       104761
#       115787
#       126529
#       140508
#       153778
#       164597
#
# Disc length: 2516 seconds
#
# Revision: 0
# Processed by: cddbd v1.5.2PL0 Copyright (c) Steve Scherf et al.
# Submitted via: CD-Transfer v1.0
#
DISCID=ba09d20e
DTITLE=Zim - 
DYEAR=07
DGENRE=
TTITLE0=Oafach Schneidig, Oafach Zim
TTITLE1=I Sing Des Liadl Nur Für Die
TTITLE2=Josip
TTITLE3=Boarisch Mag A Jeder
TTITLE4=Doreen
TTITLE5=Ohne Polka Da Geht Nix
TTITLE6=Bleib Heit Nacht Bei Mir
TTITLE7=Für Die (Lass I Alles Stehen)
TTITLE8=Heut Ist Ein Ehrentag Für Dich
TTITLE9=I Bin Koa Superstar
TTITLE10=Bei Dir Da Geh I In Die Knia
TTITLE11=Führ Mich Nicht In Versuchung
TTITLE12=Plan B Polka
TTITLE13=Bed Of Roses
EXTD=
EXTT0=
EXTT1=
EXTT2=
EXTT3=
EXTT4=
EXTT5=
EXTT6=
EXTT7=
EXTT8=
EXTT9=
EXTT10=
EXTT11=
EXTT12=
EXTT13=
PLAYORDER=
